<?xml version="1.0" standalone="no"?>
<!DOCTYPE svg PUBLIC "-//W3C//DTD SVG 20010904//EN"
 "http://www.w3.org/TR/2001/REC-SVG-20010904/DTD/svg10.dtd">
<svg version="1.0" xmlns="http://www.w3.org/2000/svg"
 width="512.000000pt" height="512.000000pt" viewBox="0 0 512.000000 512.000000"
 preserveAspectRatio="xMidYMid meet">

<g transform="translate(0.000000,512.000000) scale(0.100000,-0.100000)"
fill="#000000" stroke="none">
<path d="M3382 3916 c-35 -13 -86 -38 -114 -55 -27 -17 -52 -31 -54 -31 -3 0
-3 13 1 29 3 16 2 31 -2 34 -13 8 -145 -108 -214 -188 -34 -38 -88 -110 -121
-160 -74 -112 -209 -382 -268 -537 -25 -65 -49 -118 -55 -118 -5 1 -48 35 -95
77 -139 124 -194 159 -435 278 -343 169 -868 386 -888 366 -14 -14 8 -94 46
-165 53 -100 227 -269 363 -353 15 -9 -7 -10 -101 -6 -127 6 -188 -7 -201 -42
-11 -28 54 -141 117 -205 86 -85 264 -166 380 -171 20 -1 21 -2 4 -6 -111 -25
-245 -86 -290 -133 l-27 -28 46 -50 c89 -95 243 -152 416 -155 l95 -1 -57 -54
c-60 -57 -108 -138 -108 -181 0 -18 19 -44 64 -88 53 -51 75 -65 125 -80 34
-10 61 -21 61 -25 0 -12 -132 -120 -203 -166 -93 -60 -196 -106 -298 -134
-118 -32 -355 -32 -474 0 -95 26 -259 106 -333 162 -55 42 -80 45 -61 7 6 -12
36 -56 67 -97 279 -378 657 -608 1127 -686 150 -25 446 -25 600 0 344 55 682
184 955 363 388 256 665 597 789 974 l32 97 53 6 c29 4 77 18 107 32 55 26
162 121 153 136 -3 5 -33 6 -67 2 -70 -7 -125 5 -177 38 l-35 22 73 8 c97 10
160 45 224 123 49 61 55 82 22 77 -83 -13 -217 -12 -283 2 -41 8 -75 17 -77
19 -2 2 -15 43 -29 93 -86 301 -321 570 -585 672 -80 31 -135 44 -220 51 l-75
7 75 23 c207 63 236 77 260 122 8 14 6 23 -10 39 -25 25 -65 26 -158 0 -96
-27 -99 -26 -63 16 55 63 25 78 -77 40z"/>
</g>
</svg>
